<!-- Generated by IcoMoon.io -->
<svg version="1.1" xmlns="http://www.w3.org/2000/svg" width="32" height="32" viewBox="0 0 32 32">
<title>account</title>
<path d="M21.714 17.6c2.514-1.829 4.343-4.571 4.343-8 0-5.257-4.571-9.6-10.057-9.6s-10.057 4.343-10.057 9.6c0 3.2 1.829 6.171 4.343 8-5.943 2.286-10.286 7.771-10.286 14.4h2.971c0-6.857 5.943-12.571 13.029-12.571s13.029 5.714 13.029 12.571h2.971c0-6.629-4.343-12.114-10.286-14.4zM16 2.971c3.886 0 7.086 2.971 7.086 6.857 0 3.657-2.971 6.857-7.086 6.857-3.886 0-7.086-2.971-7.086-6.857s3.2-6.857 7.086-6.857z"></path>
</svg>
