<!-- Generated by IcoMoon.io -->
<svg version="1.1" xmlns="http://www.w3.org/2000/svg" width="32" height="32" viewBox="0 0 32 32">
<title>adventure</title>
<path d="M25.264 4.211c-0.93 0-1.684 0.754-1.684 1.684s0.754 1.684 1.684 1.684c0.93 0 1.684-0.754 1.684-1.684s-0.754-1.684-1.684-1.684zM20.211 5.895c0-2.79 2.262-5.053 5.053-5.053s5.053 2.262 5.053 5.053-2.262 5.053-5.053 5.053c-2.791 0-5.053-2.262-5.053-5.053zM11.769 13.668c-0.477-0.574-1.275-0.766-1.961-0.471-0.165 0.071-0.418 0.258-1.489 1.15-1.323 1.102-1.861 1.555-2.306 2.043-1.384 1.515-2.274 3.415-2.552 5.448-0.089 0.654-0.093 1.374-0.093 3.134 0 1.153 0.014 1.403 0.055 1.559 0.154 0.589 0.614 1.048 1.203 1.203 0.157 0.041 0.398 0.055 1.525 0.055h19.559c1.271 0 1.541-0.018 1.716-0.070 0.546-0.162 0.973-0.589 1.136-1.136 0.052-0.175 0.070-0.445 0.070-1.716 0-1.056-0.004-1.418-0.053-1.751-0.121-0.832-0.448-1.622-0.951-2.296-0.201-0.27-0.454-0.529-1.201-1.275l-0.355-0.354c-0.625-0.625-1.030-1.028-1.361-1.314-0.318-0.274-0.467-0.348-0.546-0.377-0.378-0.141-0.795-0.141-1.173 0-0.079 0.029-0.228 0.103-0.546 0.377-0.331 0.285-0.736 0.688-1.361 1.314l-0.24 0.24c-0.45 0.45-0.869 0.869-1.243 1.178-0.392 0.324-0.92 0.69-1.61 0.811-0.814 0.143-1.652-0.019-2.355-0.454-0.596-0.369-0.95-0.904-1.194-1.351-0.233-0.426-0.466-0.97-0.716-1.556l-1.154-2.692c-0.549-1.281-0.689-1.562-0.804-1.7zM8.477 10.103c2.057-0.885 4.452-0.311 5.883 1.412 0.474 0.571 0.815 1.369 1.217 2.31 0.030 0.071 0.061 0.143 0.092 0.216l1.126 2.628c0.288 0.672 0.458 1.065 0.605 1.334 0.007 0.014 0.014 0.026 0.021 0.038 0.011-0.008 0.022-0.018 0.034-0.028 0.236-0.195 0.54-0.497 1.057-1.014l0.232-0.232c0.572-0.572 1.065-1.065 1.503-1.442 0.461-0.397 0.96-0.755 1.571-0.982 1.136-0.422 2.385-0.422 3.52 0 0.61 0.227 1.109 0.585 1.571 0.982 0.438 0.377 0.931 0.87 1.503 1.442l0.396 0.396c0.028 0.028 0.056 0.056 0.083 0.083 0.633 0.633 1.071 1.070 1.436 1.559 0.839 1.124 1.383 2.439 1.585 3.827 0.088 0.604 0.088 1.223 0.088 2.118 0 0.039 0 0.078 0 0.117 0 0.070 0 0.139 0 0.207 0.001 0.942 0.002 1.756-0.209 2.467-0.486 1.639-1.768 2.92-3.406 3.406-0.711 0.211-1.525 0.21-2.467 0.209-0.069-0-0.138-0-0.207-0h-19.559c-0.062 0-0.123 0-0.184 0-0.837 0.001-1.558 0.002-2.194-0.165-1.766-0.462-3.145-1.842-3.608-3.608-0.167-0.636-0.166-1.369-0.165-2.222 0-0.063 0-0.126 0-0.19v-0.136c-0-1.583-0-2.546 0.124-3.454 0.37-2.711 1.557-5.244 3.402-7.264 0.619-0.677 1.344-1.282 2.536-2.274 0.033-0.028 0.067-0.056 0.101-0.084 0.061-0.051 0.121-0.101 0.18-0.151 0.786-0.656 1.452-1.213 2.133-1.506z"></path>
</svg>
