<!-- Generated by IcoMoon.io -->
<svg version="1.1" xmlns="http://www.w3.org/2000/svg" width="17" height="32" viewBox="0 0 17 32">
<title>arrow-left</title>
<path d="M16.622 31.623c0.243-0.246 0.378-0.577 0.378-0.921s-0.136-0.675-0.378-0.921l-13.554-13.782 13.554-13.779c0.243-0.246 0.378-0.577 0.378-0.921s-0.136-0.675-0.378-0.921c-0.118-0.12-0.259-0.215-0.415-0.281s-0.323-0.099-0.492-0.099c-0.169 0-0.336 0.034-0.492 0.099s-0.297 0.161-0.415 0.281l-14.413 14.658c-0.253 0.258-0.395 0.603-0.395 0.962s0.142 0.705 0.395 0.962l14.413 14.659c0.118 0.12 0.259 0.215 0.415 0.281s0.323 0.099 0.492 0.099c0.169 0 0.336-0.034 0.492-0.099s0.297-0.161 0.415-0.281v0.003z"></path>
</svg>
