<!-- Generated by IcoMoon.io -->
<svg version="1.1" xmlns="http://www.w3.org/2000/svg" width="32" height="32" viewBox="0 0 32 32">
<title>art</title>
<path d="M26.854 1.84c0.394 1.037 0.114 2.276-0.861 3.057-3.829 3.063-6.058 7.7-6.058 12.603 0 4.934-4.55 8.612-9.374 7.578l-3.43-0.735c0.006 0.129 0.012 0.259 0.021 0.389l0.336 5.378-3.549 0.222-0.336-5.378c-0.782-12.512 8.352-23.231 20.454-24.767 1.306-0.166 2.392 0.586 2.797 1.652zM7.297 20.744l4.008 0.859c2.611 0.559 5.074-1.431 5.074-4.102 0-4.884 1.813-9.553 5.020-13.136-7.439 2.191-13.031 8.6-14.102 16.379z"></path>
</svg>
