<!-- Generated by IcoMoon.io -->
<svg version="1.1" xmlns="http://www.w3.org/2000/svg" width="33" height="32" viewBox="0 0 33 32">
<title>author</title>
<path d="M18.514 16.63c1.091 0 2.138 0.438 2.909 1.218s1.205 1.837 1.205 2.94v3.118c0 4.27-4.295 7.276-11.314 7.276s-11.314-3.006-11.314-7.276v-3.118c0-1.103 0.433-2.16 1.205-2.94s1.818-1.218 2.909-1.218h14.4zM18.514 18.709h-14.4c-0.546 0-1.069 0.219-1.455 0.609s-0.603 0.919-0.603 1.47v3.118c0 2.925 3.248 5.197 9.257 5.197s9.257-2.272 9.257-5.197v-3.118c0-0.551-0.217-1.080-0.602-1.47s-0.909-0.609-1.455-0.609zM28.8 16.63c1.091 0 2.138 0.438 2.909 1.218s1.205 1.837 1.205 2.94v1.039c0 4.343-3.226 7.276-9.257 7.276-0.29 0-0.576-0.006-0.852-0.021 0.428-0.503 0.786-1.043 1.074-1.623l0.2-0.443h0.080c4.592-0.135 6.698-2.154 6.698-5.189v-1.039c0-0.551-0.217-1.080-0.602-1.47s-0.909-0.609-1.455-0.609h-4.466c-0.269-0.767-0.684-1.473-1.222-2.079h5.688zM11.314 0c0.946 0 1.882 0.188 2.755 0.554s1.667 0.902 2.336 1.577c0.669 0.676 1.199 1.478 1.561 2.36s0.548 1.829 0.548 2.784-0.186 1.902-0.548 2.784c-0.362 0.883-0.892 1.685-1.561 2.36s-1.462 1.212-2.336 1.577c-0.873 0.366-1.81 0.554-2.755 0.554-1.91 0-3.741-0.767-5.091-2.131s-2.109-3.215-2.109-5.145c0-1.93 0.759-3.78 2.109-5.145s3.182-2.131 5.091-2.131zM25.714 4.158c1.364 0 2.672 0.548 3.637 1.522s1.506 2.296 1.506 3.675c0 1.378-0.542 2.7-1.506 3.675s-2.273 1.522-3.637 1.522c-1.364 0-2.672-0.548-3.637-1.522s-1.506-2.296-1.506-3.675c0-1.378 0.542-2.7 1.506-3.675s2.273-1.522 3.637-1.522zM11.314 2.079c-1.364 0-2.672 0.548-3.637 1.522s-1.506 2.297-1.506 3.675c0 1.378 0.542 2.7 1.506 3.675s2.273 1.522 3.637 1.522c1.364 0 2.672-0.548 3.637-1.522s1.506-2.296 1.506-3.675c0-1.378-0.542-2.7-1.506-3.675s-2.273-1.522-3.637-1.522zM25.714 6.236c-0.818 0-1.603 0.329-2.182 0.913s-0.904 1.378-0.904 2.205c0 0.827 0.325 1.62 0.904 2.205s1.364 0.913 2.182 0.913c0.818 0 1.603-0.329 2.182-0.913s0.904-1.378 0.904-2.205c0-0.827-0.325-1.62-0.904-2.205s-1.364-0.913-2.182-0.913z"></path>
</svg>
