<!-- Generated by IcoMoon.io -->
<svg version="1.1" xmlns="http://www.w3.org/2000/svg" width="24" height="32" viewBox="0 0 24 32">
<title>book</title>
<path d="M4.006 3.2h17.995v1.55h-17.995v-1.55z"></path>
<path d="M23 6h-19.134c-0.255-0.004-0.507-0.059-0.74-0.162s-0.443-0.253-0.617-0.44c-0.174-0.187-0.308-0.407-0.394-0.647s-0.123-0.495-0.108-0.75c-0.001-0.507 0.19-0.996 0.535-1.367s0.818-0.598 1.324-0.633h19.134c0.265 0 0.519-0.105 0.707-0.293s0.293-0.442 0.293-0.707c0-0.265-0.105-0.52-0.293-0.707s-0.442-0.293-0.707-0.293h-19.134c-1.036 0.036-2.018 0.474-2.738 1.22s-1.122 1.743-1.121 2.78c-0.010 0.163-0.010 0.327 0 0.49-0.010 0.080-0.010 0.16 0 0.24v23.27c-0.001 1.037 0.401 2.034 1.121 2.78s1.701 1.184 2.738 1.22h19.134c0.265 0 0.519-0.105 0.707-0.293s0.293-0.442 0.293-0.707v-23.93c0.001-0.272-0.102-0.534-0.288-0.733s-0.44-0.319-0.712-0.337zM22.001 30h-18.135c-0.506-0.035-0.979-0.262-1.324-0.633s-0.537-0.86-0.535-1.367v-20.45c0.568 0.314 1.211 0.469 1.859 0.45h18.135v22z"></path>
</svg>
