<!-- Generated by IcoMoon.io -->
<svg version="1.1" xmlns="http://www.w3.org/2000/svg" width="38" height="32" viewBox="0 0 38 32">
<title>cart</title>
<path d="M36.322 11.093c-0.853-0.853-1.92-1.493-3.2-1.493h-4.267l-5.333-9.6-2.56 1.493 4.48 8.107h-13.653l4.48-8.107-2.56-1.493-5.333 9.6h-4.267c-1.28 0-2.347 0.64-3.2 1.493-0.64 0.853-1.067 1.707-0.853 2.773l2.987 14.507c0.64 2.347 2.133 3.627 3.84 3.627h23.253c1.92 0 3.627-1.493 3.84-3.627l2.987-14.507c0.427-1.067 0.213-1.92-0.64-2.773zM34.189 13.227l-2.987 14.507c0 0.213-0.213 1.28-1.067 1.28h-23.040c-0.427 0-0.853-0.64-1.067-1.28l-2.987-14.507c0 0 0-0.213 0.213-0.213 0-0.213 0.427-0.427 0.853-0.427h29.227c0.427 0 0.64 0.213 0.853 0.427v0.213z"></path>
</svg>
