<!-- Generated by IcoMoon.io -->
<svg version="1.1" xmlns="http://www.w3.org/2000/svg" width="32" height="32" viewBox="0 0 32 32">
<title>category</title>
<path d="M4.211 7.018c-1.55 0-2.807-1.257-2.807-2.807s1.257-2.807 2.807-2.807c1.55 0 2.807 1.257 2.807 2.807s-1.257 2.807-2.807 2.807zM4.211 8.421c2.325 0 4.211-1.885 4.211-4.211s-1.885-4.211-4.211-4.211c-2.325 0-4.211 1.885-4.211 4.211s1.885 4.211 4.211 4.211z"></path>
<path d="M16 7.018c-1.55 0-2.807-1.257-2.807-2.807s1.257-2.807 2.807-2.807c1.55 0 2.807 1.257 2.807 2.807s-1.257 2.807-2.807 2.807zM16 8.421c2.325 0 4.211-1.885 4.211-4.211s-1.885-4.211-4.211-4.211c-2.325 0-4.211 1.885-4.211 4.211s1.885 4.211 4.211 4.211z"></path>
<path d="M27.789 7.018c-1.55 0-2.807-1.257-2.807-2.807s1.257-2.807 2.807-2.807c1.55 0 2.807 1.257 2.807 2.807s-1.257 2.807-2.807 2.807zM27.789 8.421c2.325 0 4.211-1.885 4.211-4.211s-1.885-4.211-4.211-4.211c-2.325 0-4.211 1.885-4.211 4.211s1.885 4.211 4.211 4.211z"></path>
<path d="M4.211 18.807c-1.55 0-2.807-1.257-2.807-2.807s1.257-2.807 2.807-2.807 2.807 1.257 2.807 2.807c0 1.55-1.257 2.807-2.807 2.807zM4.211 20.211c2.325 0 4.211-1.885 4.211-4.211s-1.885-4.211-4.211-4.211c-2.325 0-4.211 1.885-4.211 4.211s1.885 4.211 4.211 4.211z"></path>
<path d="M16 18.807c-1.55 0-2.807-1.257-2.807-2.807s1.257-2.807 2.807-2.807c1.55 0 2.807 1.257 2.807 2.807s-1.257 2.807-2.807 2.807zM16 20.211c2.325 0 4.211-1.885 4.211-4.211s-1.885-4.211-4.211-4.211c-2.325 0-4.211 1.885-4.211 4.211s1.885 4.211 4.211 4.211z"></path>
<path d="M27.789 18.807c-1.55 0-2.807-1.257-2.807-2.807s1.257-2.807 2.807-2.807 2.807 1.257 2.807 2.807c0 1.55-1.257 2.807-2.807 2.807zM27.789 20.211c2.325 0 4.211-1.885 4.211-4.211s-1.885-4.211-4.211-4.211c-2.325 0-4.211 1.885-4.211 4.211s1.885 4.211 4.211 4.211z"></path>
<path d="M4.211 30.597c-1.55 0-2.807-1.257-2.807-2.807s1.257-2.807 2.807-2.807c1.55 0 2.807 1.257 2.807 2.807s-1.257 2.807-2.807 2.807zM4.211 32c2.325 0 4.211-1.885 4.211-4.211s-1.885-4.211-4.211-4.211c-2.325 0-4.211 1.885-4.211 4.211s1.885 4.211 4.211 4.211z"></path>
<path d="M16 30.597c-1.55 0-2.807-1.257-2.807-2.807s1.257-2.807 2.807-2.807c1.55 0 2.807 1.257 2.807 2.807s-1.257 2.807-2.807 2.807zM16 32c2.325 0 4.211-1.885 4.211-4.211s-1.885-4.211-4.211-4.211c-2.325 0-4.211 1.885-4.211 4.211s1.885 4.211 4.211 4.211z"></path>
<path d="M27.789 30.597c-1.55 0-2.807-1.257-2.807-2.807s1.257-2.807 2.807-2.807c1.55 0 2.807 1.257 2.807 2.807s-1.257 2.807-2.807 2.807zM27.789 32c2.325 0 4.211-1.885 4.211-4.211s-1.885-4.211-4.211-4.211c-2.325 0-4.211 1.885-4.211 4.211s1.885 4.211 4.211 4.211z"></path>
</svg>
