<!-- Generated by IcoMoon.io -->
<svg version="1.1" xmlns="http://www.w3.org/2000/svg" width="32" height="32" viewBox="0 0 32 32">
<title>child-book</title>
<path d="M16 9.6c-1.767 0-3.2 1.433-3.2 3.2s1.433 3.2 3.2 3.2c1.767 0 3.2-1.433 3.2-3.2s-1.433-3.2-3.2-3.2zM9.6 12.8c0-3.535 2.865-6.4 6.4-6.4s6.4 2.865 6.4 6.4c0 3.535-2.865 6.4-6.4 6.4s-6.4-2.865-6.4-6.4z"></path>
<path d="M16 3.2c-7.069 0-12.8 5.731-12.8 12.8s5.731 12.8 12.8 12.8c7.069 0 12.8-5.731 12.8-12.8s-5.731-12.8-12.8-12.8zM0 16c0-8.837 7.163-16 16-16s16 7.163 16 16c0 8.836-7.164 16-16 16s-16-7.164-16-16z"></path>
<path d="M25.249 26.922c0.203-0.112 0.3-0.353 0.214-0.569-0.617-1.546-1.805-2.908-3.412-3.9-1.736-1.072-3.862-1.653-6.050-1.653s-4.315 0.581-6.050 1.653c-1.607 0.992-2.795 2.354-3.412 3.9-0.086 0.216 0.010 0.457 0.214 0.569 5.76 3.163 12.737 3.163 18.498 0z"></path>
</svg>
