<!-- Generated by IcoMoon.io -->
<svg version="1.1" xmlns="http://www.w3.org/2000/svg" width="27" height="32" viewBox="0 0 27 32">
<title>classics</title>
<path d="M0 26.536c0-2.525 2.047-4.571 4.571-4.571h18.286c2.525 0 4.571 2.047 4.571 4.571s-2.047 4.571-4.571 4.571h-18.286c-2.525 0-4.571-2.047-4.571-4.571zM4.571 25.012c-0.842 0-1.524 0.682-1.524 1.524s0.682 1.524 1.524 1.524h18.286c0.842 0 1.524-0.682 1.524-1.524s-0.682-1.524-1.524-1.524h-18.286z"></path>
<path d="M13.714 0l11.501 11.501c0.017 0.017 0.034 0.034 0.051 0.051 0.379 0.379 0.754 0.754 1.031 1.108 0.315 0.403 0.614 0.914 0.68 1.58s-0.127 1.225-0.357 1.682c-0.202 0.401-0.496 0.843-0.793 1.288l-5.202 7.802h-13.822l-5.162-7.743c-0.013-0.020-0.027-0.040-0.040-0.060-0.297-0.445-0.592-0.887-0.793-1.288-0.23-0.457-0.423-1.016-0.357-1.682s0.365-1.177 0.68-1.58c0.277-0.354 0.652-0.729 1.031-1.108 0.017-0.017 0.034-0.034 0.051-0.051l11.501-11.501zM13.714 4.31l-9.346 9.346c-0.45 0.45-0.688 0.691-0.835 0.88-0.002 0.003-0.004 0.005-0.006 0.008 0.001 0.003 0.003 0.006 0.004 0.009 0.107 0.214 0.293 0.497 0.646 1.026l4.257 6.386h10.559l4.257-6.386c0.353-0.529 0.539-0.813 0.646-1.026 0.001-0.003 0.003-0.006 0.004-0.009-0.002-0.002-0.004-0.005-0.006-0.008-0.147-0.188-0.385-0.43-0.835-0.88l-9.346-9.346z"></path>
<path d="M13.714 17.393c-0.842 0-1.524-0.682-1.524-1.524s0.682-1.524 1.524-1.524 1.524 0.682 1.524 1.524c0 0.842-0.682 1.524-1.524 1.524zM13.714 20.441c2.525 0 4.571-2.047 4.571-4.571s-2.047-4.571-4.571-4.571c-2.525 0-4.571 2.047-4.571 4.571s2.047 4.571 4.571 4.571z"></path>
<path d="M12.19 12.822v-10.667h3.048v10.667h-3.048z"></path>
</svg>
