<!-- Generated by IcoMoon.io -->
<svg version="1.1" xmlns="http://www.w3.org/2000/svg" width="37" height="32" viewBox="0 0 37 32">
<title>compare</title>
<path d="M7.416 9.017l2.877-0.829c0.227-0.065 0.465-0.088 0.701-0.066s0.465 0.086 0.675 0.191c0.209 0.105 0.395 0.247 0.546 0.419s0.264 0.371 0.333 0.584c0.069 0.213 0.093 0.438 0.071 0.66s-0.092 0.438-0.203 0.635c-0.111 0.197-0.263 0.371-0.446 0.513s-0.394 0.249-0.62 0.314l-6.904 1.988c-0.227 0.065-0.465 0.088-0.701 0.066s-0.465-0.086-0.675-0.191c-0.209-0.105-0.395-0.248-0.545-0.42s-0.264-0.371-0.333-0.585l-2.112-6.498c-0.069-0.213-0.093-0.438-0.071-0.66s0.092-0.438 0.203-0.635c0.225-0.398 0.608-0.696 1.066-0.827s0.953-0.087 1.375 0.125c0.209 0.105 0.395 0.247 0.546 0.419s0.264 0.371 0.333 0.584l0.794 2.448c4.346-6.301 12.968-9.010 20.623-6.058 2.289 0.883 4.345 2.228 6.023 3.939s2.936 3.748 3.688 5.967c0.077 0.214 0.108 0.44 0.091 0.665s-0.081 0.445-0.189 0.646-0.258 0.381-0.44 0.527c-0.182 0.146-0.394 0.257-0.623 0.326s-0.469 0.094-0.708 0.074-0.471-0.084-0.683-0.19c-0.212-0.105-0.4-0.249-0.552-0.424s-0.266-0.375-0.335-0.592c-0.762-2.254-2.187-4.258-4.108-5.783s-4.262-2.506-6.751-2.832-5.025 0.018-7.316 0.991c-2.29 0.973-4.244 2.536-5.63 4.508zM29.665 22.939l-3.204 0.753c-0.232 0.060-0.474 0.075-0.713 0.046s-0.468-0.104-0.676-0.218c-0.208-0.114-0.389-0.267-0.533-0.448s-0.249-0.388-0.307-0.607c-0.058-0.22-0.069-0.448-0.032-0.672s0.121-0.438 0.247-0.631c0.126-0.193 0.292-0.36 0.488-0.491s0.418-0.225 0.652-0.275l6.575-1.544c0.342-0.153 0.728-0.201 1.101-0.136 0.36 0.044 0.696 0.19 0.967 0.417s0.462 0.526 0.55 0.857l1.747 6.591c0.104 0.433 0.023 0.887-0.224 1.264s-0.642 0.649-1.099 0.757-0.941 0.042-1.348-0.182c-0.407-0.224-0.704-0.589-0.829-1.017l-0.596-2.246c-1.738 2.354-4.118 4.223-6.89 5.41s-5.832 1.649-8.86 1.337c-3.027-0.312-5.909-1.387-8.342-3.112s-4.326-4.035-5.481-6.687l-0.469-1.077c-0.181-0.417-0.179-0.885 0.006-1.3s0.538-0.745 0.981-0.916c0.443-0.171 0.94-0.169 1.382 0.005s0.792 0.506 0.973 0.923l0.469 1.075c0.92 2.113 2.436 3.949 4.383 5.311s4.254 2.197 6.669 2.415c2.415 0.218 4.848-0.188 7.035-1.175s4.047-2.52 5.378-4.43z"></path>
</svg>
