<!-- Generated by IcoMoon.io -->
<svg version="1.1" xmlns="http://www.w3.org/2000/svg" width="32" height="32" viewBox="0 0 32 32">
<title>contemporary</title>
<path d="M4.953 0c-0.187-0-0.492-0.001-0.768 0.036-0.358 0.048-0.946 0.189-1.453 0.696s-0.648 1.095-0.696 1.453c-0.037 0.276-0.037 0.581-0.036 0.768 0 0.017 0 0.032 0 0.047v27c0 1.104 0.895 2 2 2s2-0.896 2-2v-10h6.764l0.894 1.789c0.008 0.015 0.015 0.031 0.023 0.047 0.113 0.226 0.256 0.513 0.411 0.756 0.191 0.3 0.48 0.671 0.948 0.96s0.93 0.382 1.283 0.419c0.287 0.030 0.607 0.030 0.86 0.029 0.018 0 0.035 0 0.052 0h9.764c0.015 0 0.030 0 0.047 0 0.187 0 0.492 0.001 0.768-0.036 0.358-0.048 0.946-0.189 1.453-0.696s0.648-1.095 0.696-1.453c0.037-0.276 0.037-0.581 0.036-0.768 0-0.017 0-0.032 0-0.047v-14c0-0.015 0-0.030 0-0.047 0-0.187 0.001-0.492-0.036-0.768-0.048-0.358-0.189-0.946-0.696-1.453s-1.095-0.648-1.453-0.696c-0.276-0.037-0.581-0.037-0.768-0.036-0.017 0-0.032 0-0.047 0h-9.764l-0.894-1.789c-0.008-0.015-0.015-0.031-0.023-0.047-0.113-0.226-0.256-0.513-0.411-0.756-0.191-0.299-0.48-0.671-0.948-0.96s-0.93-0.382-1.283-0.419c-0.287-0.030-0.607-0.029-0.86-0.029-0.018 0-0.035 0-0.052 0h-7.764c-0.015 0-0.030-0-0.047-0zM6 16h6.764c0.017 0 0.035 0 0.052-0 0.253-0 0.573-0 0.86 0.029 0.353 0.037 0.815 0.13 1.283 0.419l-1.051 1.701zM6 16v-12h6.764l0.894 1.789c0.008 0.015 0.015 0.031 0.023 0.047 0.113 0.226 0.256 0.513 0.411 0.756 0.191 0.299 0.48 0.671 0.948 0.96s0.93 0.382 1.283 0.419c0.287 0.030 0.607 0.029 0.86 0.029 0.018 0 0.035-0 0.052-0h8.764v12h-8.764l-0.894-1.789c-0.008-0.015-0.015-0.031-0.023-0.047-0.113-0.226-0.256-0.513-0.411-0.756-0.191-0.299-0.48-0.671-0.948-0.96z"></path>
</svg>
