<!-- Generated by IcoMoon.io -->
<svg version="1.1" xmlns="http://www.w3.org/2000/svg" width="32" height="32" viewBox="0 0 32 32">
<title>discount</title>
<path d="M31.998 8.971v-3.514c-0.001-0.914-0.364-1.791-1.011-2.437s-1.523-1.010-2.437-1.011h-2.579v-1.072c0-0.518-0.42-0.937-0.937-0.937s-0.937 0.42-0.937 0.937v1.072h-4.149v-1.072c0-0.518-0.42-0.938-0.938-0.938s-0.938 0.42-0.938 0.938v1.072h-4.151v-1.072c0-0.518-0.419-0.937-0.937-0.937s-0.937 0.42-0.937 0.937v1.072h-4.149v-1.072c0-0.518-0.42-0.938-0.938-0.938s-0.938 0.42-0.938 0.938v1.072h-2.576c-0.914 0.001-1.79 0.365-2.437 1.011s-1.010 1.523-1.012 2.437v23.095c0.001 0.914 0.364 1.791 1.011 2.437s1.523 1.010 2.437 1.011h25.102c0.914-0.001 1.791-0.364 2.437-1.011s1.010-1.523 1.011-2.437l0-19.581zM2.336 4.346c0.294-0.296 0.694-0.462 1.111-0.462h2.576v0.068c0 0.518 0.42 0.938 0.938 0.938s0.938-0.42 0.938-0.938v-0.068h4.149v0.068c0 0.518 0.42 0.937 0.937 0.937s0.937-0.42 0.937-0.937v-0.068h4.15v0.068c0 0.518 0.42 0.938 0.938 0.938s0.938-0.42 0.938-0.938v-0.068h4.149v0.068c0 0.518 0.42 0.937 0.937 0.937s0.937-0.42 0.937-0.937v-0.068h2.579c0.417 0.001 0.817 0.166 1.112 0.461s0.461 0.695 0.461 1.112v2.576h-28.251v-2.576c-0-0.417 0.166-0.818 0.463-1.111h0zM28.55 30.125h-25.102c-0.417-0-0.817-0.166-1.113-0.461s-0.462-0.695-0.462-1.112v-18.644h28.251l-0.002 18.644c0 0.417-0.166 0.817-0.46 1.112s-0.695 0.461-1.111 0.462h-0zM11.736 18.703c0.917 0.001 1.782-0.424 2.341-1.151s0.748-1.672 0.511-2.558c-0.236-0.886-0.871-1.611-1.718-1.962s-1.809-0.289-2.603 0.169c-0.794 0.458-1.33 1.259-1.45 2.168s0.19 1.822 0.838 2.47c0.551 0.554 1.3 0.865 2.081 0.864v0zM10.981 15.001c0.199-0.203 0.471-0.316 0.755-0.313 0.285-0.002 0.559 0.111 0.759 0.313 0.201 0.201 0.314 0.473 0.313 0.757s-0.114 0.556-0.315 0.757c-0.201 0.201-0.474 0.313-0.758 0.312-0.284 0.001-0.556-0.112-0.755-0.314-0.201-0.201-0.315-0.474-0.314-0.758-0.001-0.284 0.112-0.556 0.314-0.755v0zM20.258 21.331c-0.915 0.001-1.777 0.427-2.333 1.153s-0.744 1.67-0.506 2.553c0.237 0.884 0.872 1.606 1.717 1.956s1.805 0.287 2.597-0.171c0.792-0.458 1.327-1.257 1.446-2.164s-0.19-1.818-0.837-2.465c-0.551-0.555-1.301-0.865-2.083-0.862h-0zM21.016 25.036c-0.201 0.2-0.474 0.312-0.758 0.312s-0.555-0.113-0.755-0.314-0.313-0.473-0.312-0.756c0-0.283 0.113-0.555 0.313-0.756s0.472-0.313 0.756-0.313c0.283-0 0.555 0.112 0.756 0.312s0.314 0.472 0.314 0.755c-0 0.285-0.113 0.558-0.314 0.76l0-0zM22.492 16.467c0.001-0.781-0.309-1.531-0.861-2.084s-1.302-0.863-2.083-0.863-1.53 0.311-2.083 0.864l-7.101 7.101c-0.552 0.552-0.862 1.302-0.862 2.082s0.31 1.53 0.863 2.082c0.552 0.552 1.301 0.862 2.082 0.862 0.782 0.003 1.533-0.308 2.084-0.864l7.098-7.098c0.554-0.551 0.865-1.302 0.862-2.083v0zM20.305 17.224l-7.101 7.1c-0.2 0.202-0.472 0.315-0.756 0.314-0.284 0.001-0.557-0.111-0.758-0.312s-0.314-0.473-0.314-0.757c0-0.284 0.113-0.556 0.314-0.757l7.101-7.102c0.201-0.201 0.473-0.314 0.757-0.314s0.556 0.113 0.757 0.314c0.201 0.201 0.313 0.474 0.312 0.758 0.002 0.284-0.111 0.557-0.312 0.757v-0z"></path>
</svg>
