<!-- Generated by IcoMoon.io -->
<svg version="1.1" xmlns="http://www.w3.org/2000/svg" width="32" height="32" viewBox="0 0 32 32">
<title>discount-1</title>
<path d="M8.036 9.143v-2.286c0-3.787 3.065-6.857 6.847-6.857 2.184 0 4.13 1.024 5.383 2.619-0.798 0.209-1.559 0.512-2.269 0.896-0.816-0.763-1.911-1.23-3.115-1.23-2.521 0-4.564 2.047-4.564 4.571v2.286h2.867c-0.257 0.728-0.434 1.493-0.522 2.286h-2.345v3.429c0 0.631-0.511 1.143-1.141 1.143s-1.141-0.512-1.141-1.143v-3.429h-1.49c-0.558 0-1.034 0.404-1.125 0.955l-3.121 16c-0.116 0.697 0.42 1.331 1.125 1.331h22.916c0.705 0 1.242-0.634 1.125-1.331l-1.191-6.105c0.751-0.264 1.462-0.614 2.122-1.037l1.32 6.766c0.348 2.090-1.261 3.992-3.377 3.992h-22.916c-2.115 0-3.724-1.902-3.377-3.992l3.121-16c0.275-1.653 1.703-2.865 3.377-2.865l1.49-0z"></path>
<path d="M17.429 9.189c0.56-1.084 1.917-1.571 3.029-0.854 1.026 0.662 1.299 2.023 0.77 3.047-0.56 1.084-1.917 1.571-3.029 0.854-1.026-0.662-1.299-2.023-0.77-3.047z"></path>
<path d="M24.928 8.587c0.56 0.29 0.779 0.98 0.489 1.54l-3.067 5.938c-0.29 0.561-0.978 0.78-1.538 0.49s-0.779-0.98-0.489-1.54l3.067-5.938c0.29-0.561 0.978-0.78 1.538-0.49z"></path>
<path d="M24.513 13.761c0.56-1.084 1.917-1.571 3.029-0.854 1.026 0.662 1.298 2.023 0.77 3.047-0.56 1.084-1.917 1.571-3.028 0.854-1.026-0.662-1.299-2.023-0.77-3.047z"></path>
<path d="M13.741 12.571c0-5.050 4.087-9.143 9.129-9.143s9.129 4.093 9.129 9.143c0 5.049-4.087 9.143-9.129 9.143s-9.129-4.093-9.129-9.143zM22.87 5.714c-3.781 0-6.847 3.070-6.847 6.857s3.066 6.857 6.847 6.857c3.782 0 6.847-3.070 6.847-6.857s-3.065-6.857-6.847-6.857z"></path>
</svg>
