<!-- Generated by IcoMoon.io -->
<svg version="1.1" xmlns="http://www.w3.org/2000/svg" width="32" height="32" viewBox="0 0 32 32">
<title>education</title>
<path d="M30.222 7.111v17.778c0 3.352 0 5.028-1.041 6.070s-2.718 1.041-6.070 1.041h-16.889c-1.836 0-3.412-1.113-4.090-2.702-0.228-0.535-0.355-1.124-0.355-1.742v-20.444c0-3.352 0-5.028 1.041-6.070s2.717-1.041 6.070-1.041h14.222c3.352 0 5.028 0 6.070 1.041s1.041 2.717 1.041 6.070zM5.333 25.041v2.515c0 0.491 0.398 0.889 0.889 0.889h16.889c1.777 0 2.751-0.007 3.428-0.099 0.009-0.001 0.018-0.002 0.026-0.004 0.001-0.008 0.002-0.017 0.004-0.026 0.091-0.676 0.099-1.651 0.099-3.428v-0.083c-0.977 0.083-2.133 0.083-3.439 0.083h-17.006c-0.312 0-0.611 0.053-0.889 0.152zM26.667 21.233v-14.122c0-1.777-0.007-2.751-0.099-3.428-0.001-0.009-0.002-0.017-0.004-0.026-0.008-0.001-0.017-0.002-0.026-0.004-0.676-0.091-1.651-0.098-3.428-0.098h-14.222c-1.777 0-2.751 0.008-3.428 0.098-0.009 0.001-0.017 0.002-0.026 0.004-0.001 0.008-0.002 0.017-0.004 0.026-0.091 0.676-0.098 1.651-0.098 3.428v14.285c0.29-0.041 0.587-0.063 0.889-0.063h16.889c1.651 0 2.744-0.003 3.556-0.1zM5.088 3.728l0.003-0.001c-0.002 0.001-0.003 0.001-0.003 0.001zM26.912 3.728l-0.003-0.001c0.002 0.001 0.003 0.001 0.003 0.001zM26.495 28.69l0.001-0.003c-0.001 0.002-0.001 0.003-0.001 0.003zM8.889 8.889c0 0.982 0.796 1.778 1.778 1.778h10.667c0.982 0 1.778-0.796 1.778-1.778s-0.796-1.778-1.778-1.778h-10.667c-0.982 0-1.778 0.796-1.778 1.778z"></path>
</svg>
