<!-- Generated by IcoMoon.io -->
<svg version="1.1" xmlns="http://www.w3.org/2000/svg" width="35" height="32" viewBox="0 0 35 32">
<title>expert</title>
<path d="M16.845 0c-4.548 0.089-8.874 1.977-12.032 5.251s-4.887 7.667-4.811 12.214v7.798c0 1.332 0.395 2.635 1.135 3.743s1.792 1.971 3.023 2.481c1.231 0.51 2.586 0.643 3.892 0.383s2.507-0.902 3.449-1.844 1.584-2.142 1.844-3.449c0.26-1.307 0.127-2.661-0.383-3.892s-1.373-2.283-2.481-3.023c-1.108-0.74-2.41-1.135-3.743-1.135-1.187 0.005-2.351 0.331-3.368 0.943v-2.004c-0.077-3.654 1.298-7.19 3.824-9.833s5.996-4.176 9.65-4.264c3.654 0.088 7.124 1.622 9.65 4.264s3.901 6.178 3.824 9.833v2.004c-1.017-0.612-2.181-0.938-3.368-0.943-1.333 0-2.635 0.395-3.743 1.135s-1.971 1.793-2.481 3.023c-0.51 1.231-0.643 2.585-0.383 3.892s0.902 2.507 1.844 3.449 2.143 1.584 3.449 1.844c1.307 0.26 2.661 0.127 3.892-0.383s2.283-1.373 3.023-2.481c0.74-1.108 1.136-2.41 1.136-3.743v-7.798c0.077-4.548-1.653-8.94-4.811-12.214s-7.484-5.162-12.032-5.251zM6.739 21.895c0.666 0 1.317 0.198 1.871 0.568s0.986 0.896 1.241 1.512c0.255 0.616 0.322 1.293 0.192 1.946s-0.451 1.254-0.922 1.725-1.071 0.792-1.725 0.922c-0.653 0.13-1.331 0.063-1.946-0.192s-1.142-0.687-1.512-1.241-0.568-1.205-0.568-1.871c0-0.893 0.355-1.75 0.987-2.382s1.488-0.987 2.382-0.987zM26.95 28.632c-0.666 0-1.318-0.198-1.872-0.568s-0.986-0.896-1.241-1.512c-0.255-0.616-0.322-1.293-0.192-1.946s0.451-1.254 0.922-1.725 1.071-0.792 1.725-0.922c0.653-0.13 1.331-0.063 1.946 0.192s1.142 0.687 1.512 1.241 0.568 1.205 0.568 1.871c0 0.893-0.355 1.75-0.987 2.382s-1.488 0.987-2.382 0.987z"></path>
</svg>
