<!-- Generated by IcoMoon.io -->
<svg version="1.1" xmlns="http://www.w3.org/2000/svg" width="30" height="32" viewBox="0 0 30 32">
<title>family</title>
<path d="M26.48 18.8h-0.32v-7.28c0-2.4-1.52-4.48-3.6-5.36 1.92-2.48 0.16-6.16-2.96-6.16s-4.88 3.6-2.96 6.080l-3.84 1.36c-0.16-0.080-0.080 0-0.080-0.080 0.24-1.12-0.080-2.32-0.88-3.2v-1.36c0-1.52-1.28-2.8-2.8-2.8s-2.8 1.28-2.8 2.8v1.36c-0.8 0.88-1.12 2.080-0.88 3.28-0.080 0 0 0-0.16 0.080h-2.56c-1.44 0-2.64 1.2-2.64 2.64 0 1.12 0.64 2.080 1.68 2.48l0.64 0.24-0.64 14.32c0 0.56 0.4 0.96 0.96 0.96h1.84l0.48 3.040c0.080 0.48 0.48 0.8 0.96 0.8h6.24c0.48 0 0.88-0.32 0.96-0.8l0.48-3.040h0.96v2.88c0 0.48 0.4 0.96 0.96 0.96h8.080c0.48 0 0.96-0.4 0.96-0.96v-10.4h1.92c0.48 0 0.96 0.4 0.96 0.96v9.44c0 0.48 0.4 0.96 0.96 0.96 0.48 0 0.96-0.4 0.96-0.96v-9.44c-0.080-1.52-1.36-2.8-2.88-2.8zM24.24 18.8h-8l-0.24-6c-0.080-1.44-0.64-2.88-1.52-4l2.080-0.72 2.4 2.88c0.4 0.4 1.040 0.4 1.44 0l2.32-2.72c0.96 0.72 1.68 1.84 1.68 3.2l-0.16 7.36zM10.96 6.64c0 1.040-0.8 1.84-1.84 1.84s-1.92-0.8-1.92-1.84c0-1.040 0.8-1.84 1.84-1.84s1.92 0.8 1.92 1.84zM6.24 9.12c1.52 1.76 4.16 1.68 5.68-0.080 0.72 0.48 1.28 1.12 1.68 1.92-2.56 2.16-6.32 2.16-8.88 0 0.32-0.72 0.88-1.36 1.52-1.84zM20.72 7.6l-1.12 1.36-1.12-1.36c2.16 0 2.080 0 2.24 0zM19.6 1.84c1.040 0 1.84 0.88 1.84 1.92s-0.8 1.84-1.84 1.84c-1.040 0-1.84-0.88-1.84-1.92s0.8-1.84 1.84-1.84zM9.040 1.84c0.48 0 0.96 0.4 0.96 0.96v0.16c-0.64-0.16-1.28-0.16-1.84 0v-0.16c0-0.48 0.4-0.96 0.88-0.96zM2.64 9.36h0.8c-0.32 0.48-0.56 1.040-0.8 1.6l-0.32-0.080c-0.72-0.32-0.48-1.52 0.32-1.52zM4.16 12.88c2.96 2.080 6.96 2.080 9.92 0l0.56 13.36h-11.040c0 0.080 0.56-13.36 0.56-13.36zM6.4 28.16h1.68v1.92h-1.44l-0.24-1.92zM11.36 30.16h-1.36v-1.92h1.68l-0.32 1.92zM22.64 30.16h-2.16v-6.64c0-0.48-0.4-0.96-0.96-0.96-0.48 0-0.96 0.4-0.96 0.96v6.64h-2.24v-2.32c0.16-0.16 0.16-0.4 0.16-0.56l-0.24-6.56h6.32l0.080 9.44z"></path>
</svg>
