<!-- Generated by IcoMoon.io -->
<svg version="1.1" xmlns="http://www.w3.org/2000/svg" width="32" height="32" viewBox="0 0 32 32">
<title>fantasy</title>
<path d="M31.12 24.56c0.16-0.48 0.24-0.96 0.24-1.44 0-1.12-0.4-2.24-1.2-3.12-0.24-0.24-0.32-0.56-0.24-0.88 0-0.24 0.080-0.48 0.080-0.72 0-1.44-0.64-2.72-1.76-3.6-0.24-0.24-0.4-0.56-0.4-0.88 0-1.84-1.12-3.52-2.8-4.32-0.24-0.080-0.48-0.32-0.56-0.56-0.8-1.92-2.32-2.88-4.32-2.8-0.8 0-1.36-0.080-1.92-0.24-0.48-0.080-0.96-0.16-1.44-0.080-1.6-2.8-4.56-3.6-4.72-3.68l-1.36-0.32 0.64 4.72-9.36-6.64 5.12 10.64c-1.52 1.44-3.040 2.88-4.24 4.080-0.8 0.8-1.52 1.52-1.92 1.92-0.56 0.48-0.96 1.2-0.96 1.92 0 0.8 0.24 1.52 0.8 2l1.28 1.36c1.28 1.36 3.36 1.76 5.12 1.040l1.36-0.56c-0.080 0.16-0.080 0.32-0.16 0.48-0.16 0.48-0.24 1.2-0.32 1.92s-0.16 1.44-0.32 1.84c-0.32 0.88-0.8 1.2-1.36 1.6-0.64 0.48-1.52 1.040-1.84 2.48l-0.32 1.28h27.36v-4.72c0-0.64-0.16-1.36-0.4-1.92-0.16-0.24-0.16-0.56-0.080-0.8zM6.8 5.68l3.36 2.4c-0.16 0.080-0.24 0.16-0.4 0.32-0.4 0.32-0.8 0.64-1.2 0.96l-1.76-3.68zM7.44 29.84c0.64-0.48 1.52-1.12 2-2.48 0.24-0.64 0.32-1.52 0.4-2.32 0.080-0.56 0.080-1.2 0.24-1.52 0.4-1.12 1.12-1.68 1.52-1.84 0.4 0.16 0.88 0.32 1.76 0.4-0.080 0.48-0.32 1.12-0.64 1.76-0.56 1.28-1.2 2.96-1.2 4.88 0 0.56 0 1.040 0.080 1.44h-4.48c0.16-0.16 0.24-0.24 0.32-0.32zM25.76 30.080h-12.24c-0.080-0.24-0.16-0.64-0.16-1.44 0-1.52 0.56-2.88 1.12-4.16 0.4-0.88 0.72-1.76 0.8-2.56 0.56-0.080 1.12-0.24 1.68-0.48 0.72-0.32 1.36-0.64 1.92-1.12l-1.28-1.52c-0.4 0.32-0.96 0.64-1.44 0.88-0.64 0.24-1.36 0.4-2 0.48-1.12 0.080-1.52-0.080-1.92-0.24-0.8-0.32-1.44-0.4-3.2 0.32l-2.64 1.040c-0.8 0.32-1.68 0.24-2.4-0.16l1.12-1.040-1.28-1.44-1.28 1.12-0.48-0.48c-0.16-0.16-0.24-0.4-0.24-0.64s0.080-0.48 0.32-0.64c0.48-0.4 1.2-1.12 2-2 1.84-1.84 4.32-4.32 6.72-6.16 0.56-0.4 1.2-0.72 1.84-0.96l0.8-0.24-0.56-4c0.16 0.080 0.32 0.16 0.4 0.32 1.2 0.88 2 2 2.32 3.36l0.16 0.56 0.56 0.16c3.28 0.8 9.36 9.44 9.36 19.68v1.36zM29.68 30.080h-2.080v-1.28c0-4.88-1.28-9.92-3.68-14.32-1.6-3.040-3.6-5.28-5.44-6.48 0.48 0.080 0.96 0.16 1.6 0.080 1.2 0 2.080 0.48 2.56 1.68 0.32 0.72 0.88 1.28 1.52 1.52 1.040 0.48 1.68 1.44 1.68 2.56 0 0.88 0.4 1.76 1.12 2.32 0.64 0.56 1.040 1.36 1.040 2.16 0 0.16 0 0.32 0 0.4-0.16 0.88 0.080 1.76 0.72 2.4 0.48 0.48 0.72 1.2 0.72 1.84 0 0.32-0.080 0.56-0.16 0.88-0.24 0.72-0.16 1.44 0.16 2.16 0.16 0.4 0.24 0.72 0.24 1.12v2.96z"></path>
<path d="M26.48 8.080l0.8 1.52 0.8-1.52c0.56-1.040 1.36-1.84 2.4-2.4l1.52-0.8-1.52-0.8c-1.040-0.56-1.84-1.36-2.4-2.4l-0.8-1.52-0.8 1.52c-0.56 1.040-1.36 1.84-2.4 2.4l-1.52 0.8 1.52 0.8c0.96 0.56 1.84 1.44 2.4 2.4zM27.28 3.76c0.32 0.4 0.72 0.8 1.12 1.12-0.4 0.32-0.8 0.72-1.12 1.12-0.32-0.4-0.72-0.8-1.12-1.12 0.4-0.32 0.8-0.72 1.12-1.12z"></path>
<path d="M19.6 3.28c0.48 0 0.96-0.4 0.96-0.96 0-0.48-0.4-0.96-0.96-0.96-0.48 0-0.96 0.4-0.96 0.96 0.080 0.56 0.48 0.96 0.96 0.96z"></path>
<path d="M2.96 25.28c-0.48 0-0.96 0.4-0.96 0.96 0 0.48 0.4 0.96 0.96 0.96 0.48 0 0.96-0.4 0.96-0.96 0-0.48-0.4-0.96-0.96-0.96z"></path>
<path d="M2.64 11.36c0.48 0 0.96-0.4 0.96-0.96 0-0.48-0.4-0.96-0.96-0.96-0.48 0-0.96 0.4-0.96 0.96s0.4 0.96 0.96 0.96z"></path>
<path d="M12.56 12.88c0.16 0.32 0 0.72-0.32 0.88s-0.72 0-0.88-0.32l-1.76 0.64c0.4 0.96 1.36 1.52 2.32 1.52 0.32 0 0.64-0.080 0.96-0.24 1.28-0.56 1.92-2 1.36-3.36l-1.68 0.88z"></path>
</svg>
