<!-- Generated by IcoMoon.io -->
<svg version="1.1" xmlns="http://www.w3.org/2000/svg" width="32" height="32" viewBox="0 0 32 32">
<title>fiction</title>
<path d="M31.52 19.2c-0.16-0.16-3.040-3.6-7.12-4-0.4-3.92-3.52-7.040-7.44-7.52v-2.24c1.12-0.4 1.84-1.44 1.84-2.64 0-1.52-1.28-2.8-2.8-2.8s-2.8 1.28-2.8 2.8c0 1.2 0.8 2.24 1.84 2.64v2.24c-3.92 0.4-7.040 3.6-7.44 7.52-4.080 0.48-6.96 3.84-7.12 4l-0.48 0.64 0.48 0.64c0.16 0.16 2.8 3.28 6.56 3.92l-2.88 5.76h-2.24v1.84h5.6v-1.84h-1.28l2.8-5.6h6v5.6h-1.84v1.84h5.6v-1.84h-1.84v-5.6h6l2.8 5.6h-1.28v1.84h5.6v-1.84h-2.24l-2.88-5.76c3.76-0.72 6.4-3.84 6.56-3.92l0.48-0.64-0.48-0.64zM16 1.84c0.48 0 0.96 0.4 0.96 0.96s-0.48 0.96-0.96 0.96c-0.48 0-0.96-0.4-0.96-0.96s0.4-0.96 0.96-0.96zM16 9.52c3.28 0 6 2.48 6.48 5.6h-12.96c0.4-3.2 3.2-5.6 6.48-5.6zM23.52 22.64h-15.040c-2.72 0-4.96-1.84-6-2.8 1.040-0.96 3.28-2.8 6-2.8h14.96c2.72 0 4.96 1.84 6 2.8-0.96 0.96-3.28 2.8-5.92 2.8z"></path>
<path d="M5.68 18.88h1.84v1.84h-1.84v-1.84z"></path>
<path d="M9.44 18.88h1.84v1.84h-1.84v-1.84z"></path>
<path d="M13.2 18.88h1.84v1.84h-1.84v-1.84z"></path>
<path d="M16.96 18.88h1.84v1.84h-1.84v-1.84z"></path>
<path d="M20.72 18.88h1.84v1.84h-1.84v-1.84z"></path>
<path d="M24.4 18.88h1.84v1.84h-1.84v-1.84z"></path>
</svg>
