<!-- Generated by IcoMoon.io -->
<svg version="1.1" xmlns="http://www.w3.org/2000/svg" width="39" height="32" viewBox="0 0 39 32">
<title>free-delivery</title>
<path d="M2.783 13.913h16.696v2.783h-16.696v-2.783z"></path>
<path d="M0 6.957h13.913v2.783h-13.913v-2.783z"></path>
<path d="M38.844 14.756l-4.174-9.739c-0.107-0.25-0.285-0.464-0.513-0.614s-0.494-0.23-0.766-0.23h-4.174v-2.783c0-0.369-0.147-0.723-0.407-0.984s-0.615-0.407-0.984-0.407h-22.261v2.783h20.87v17.469c-0.634 0.368-1.189 0.858-1.632 1.442s-0.767 1.249-0.953 1.959h-8.743c-0.339-1.312-1.144-2.455-2.265-3.215s-2.481-1.085-3.825-0.915-2.579 0.826-3.475 1.842c-0.895 1.016-1.389 2.324-1.389 3.679s0.494 2.663 1.389 3.679c0.895 1.016 2.131 1.671 3.475 1.842s2.704-0.155 3.825-0.915c1.121-0.76 1.926-1.903 2.265-3.215h8.743c0.303 1.194 0.995 2.253 1.967 3.010s2.169 1.167 3.401 1.167 2.429-0.411 3.401-1.167c0.972-0.757 1.664-1.816 1.967-3.010h2.98c0.369 0 0.723-0.147 0.984-0.407s0.407-0.615 0.407-0.984v-9.739c0-0.189-0.038-0.375-0.113-0.548zM9.739 27.826c-0.55 0-1.088-0.163-1.546-0.469s-0.814-0.74-1.025-1.249c-0.211-0.509-0.266-1.068-0.158-1.608s0.372-1.036 0.762-1.425 0.885-0.654 1.425-0.762c0.54-0.107 1.099-0.052 1.608 0.158s0.943 0.567 1.249 1.025 0.469 0.995 0.469 1.546c-0.001 0.738-0.294 1.445-0.816 1.967s-1.229 0.815-1.967 0.816zM29.217 6.957h3.256l2.983 6.957h-6.239v-6.957zM29.217 27.826c-0.55 0-1.088-0.163-1.546-0.469s-0.814-0.74-1.025-1.249c-0.21-0.509-0.266-1.068-0.158-1.608s0.372-1.036 0.762-1.425 0.885-0.654 1.425-0.762c0.54-0.107 1.099-0.052 1.608 0.158s0.943 0.567 1.249 1.025c0.306 0.458 0.469 0.995 0.469 1.546-0.001 0.738-0.294 1.445-0.816 1.967s-1.229 0.815-1.967 0.816zM36.174 23.652h-1.589c-0.306-1.192-1-2.248-1.971-3.003s-2.166-1.167-3.396-1.171v-2.783h6.957v6.957z"></path>
</svg>
