<!-- Generated by IcoMoon.io -->
<svg version="1.1" xmlns="http://www.w3.org/2000/svg" width="32" height="32" viewBox="0 0 32 32">
<title>genre</title>
<path d="M17.616 3.556v8.953l3.064-2.228c1.436-1.045 1.82-3.022 0.879-4.529-0.851-1.361-2.339-2.189-3.943-2.196zM14.060 3.192c0-1.763 1.429-3.192 3.192-3.192h0.344c2.837 0 5.474 1.462 6.978 3.867 0.861 1.377 1.181 2.946 1.011 4.452l0.456-0.263c1.527-0.881 3.479-0.358 4.36 1.168l0.172 0.298c1.419 2.457 1.471 5.471 0.14 7.977-0.762 1.434-1.961 2.496-3.35 3.102l0.456 0.263c1.527 0.881 2.050 2.834 1.168 4.36l-0.172 0.298c-1.419 2.457-4.003 4.010-6.838 4.109-1.623 0.057-3.142-0.45-4.362-1.35v0.527c0 1.763-1.429 3.192-3.192 3.192h-0.344c-2.837 0-5.474-1.462-6.978-3.867-0.861-1.377-1.181-2.946-1.011-4.452l-0.456 0.263c-1.527 0.881-3.479 0.358-4.36-1.168l-0.172-0.298c-1.419-2.457-1.471-5.471-0.14-7.977 0.762-1.434 1.961-2.496 3.35-3.102l-0.456-0.264c-1.527-0.881-2.050-2.834-1.168-4.36v0l0.172-0.298c1.419-2.457 4.003-4.010 6.838-4.109 1.623-0.057 3.142 0.45 4.362 1.351v-0.527zM15.459 15.807c0.123-0.070 0.242-0.148 0.356-0.232 0.123 0.072 0.249 0.136 0.379 0.193-0.001 0.142 0.007 0.284 0.022 0.425-0.123 0.070-0.242 0.148-0.357 0.232-0.122-0.072-0.249-0.136-0.379-0.193 0.001-0.142-0.007-0.284-0.022-0.425zM13.305 8.947c-0.187-1.766-1.707-3.088-3.482-3.026-1.604 0.056-3.066 0.931-3.873 2.317l7.754 4.477-0.398-3.768zM27.504 11.317l-7.754 4.477 3.462 1.539c1.623 0.722 3.528 0.065 4.361-1.503 0.753-1.417 0.727-3.121-0.070-4.513zM8.464 14.667c-1.623-0.722-3.528-0.065-4.361 1.503-0.753 1.417-0.727 3.121 0.069 4.513l7.754-4.477-3.462-1.539zM25.726 23.762l-7.754-4.477 0.398 3.768c0.186 1.766 1.707 3.088 3.482 3.026 1.604-0.056 3.066-0.931 3.873-2.317zM14.060 19.491l-3.064 2.228c-1.436 1.045-1.82 3.022-0.879 4.529 0.85 1.361 2.339 2.189 3.943 2.196v-8.953z"></path>
</svg>
