<!-- Generated by IcoMoon.io -->
<svg version="1.1" xmlns="http://www.w3.org/2000/svg" width="32" height="32" viewBox="0 0 32 32">
<title>gift</title>
<path d="M27.043 5.022h-5.719c0.51-0.994 0.507-2.173-0.009-3.164s-1.479-1.671-2.585-1.824c-1.107-0.153-2.219 0.24-2.983 1.054-0.765-0.814-1.877-1.208-2.984-1.055s-2.071 0.833-2.586 1.824c-0.515 0.991-0.518 2.171-0.007 3.165h-5.72c-0.914 0.001-1.791 0.364-2.438 1.011s-1.011 1.523-1.012 2.438v5.020c0.001 0.518 0.42 0.938 0.938 0.938h0.318v14.126c0.001 0.914 0.365 1.79 1.012 2.436s1.523 1.009 2.437 1.009h20.085c0.913-0.001 1.789-0.365 2.435-1.010s1.009-1.522 1.010-2.435v-14.126h0.318c0.518-0.001 0.938-0.421 0.938-0.938v-5.020c-0.001-0.914-0.365-1.791-1.011-2.437s-1.523-1.010-2.438-1.011l-0-0zM28.616 8.47l0 4.083h-8.167v-5.656h6.593c0.417 0.001 0.817 0.167 1.112 0.461s0.461 0.695 0.462 1.112v-0zM13.235 6.897h5.338v5.656h-5.655v-5.656h0.317zM18.258 1.875c0.562 0.001 1.080 0.301 1.361 0.787s0.281 1.085 0 1.572c-0.28 0.487-0.799 0.787-1.361 0.787h-1.574v-1.575c0-0.417 0.167-0.817 0.462-1.111s0.695-0.46 1.112-0.46v0zM13.235 1.875c0.417 0 0.817 0.165 1.112 0.46s0.461 0.695 0.461 1.111v1.575h-1.573c-0.561-0.001-1.080-0.301-1.361-0.787s-0.281-1.085 0-1.572c0.28-0.487 0.799-0.787 1.361-0.787v-0zM2.875 8.47c0.001-0.417 0.167-0.817 0.462-1.112s0.695-0.461 1.112-0.461h6.595v5.656h-8.169l-0-4.083zM4.132 28.555l-0-14.126h6.913v15.698h-5.34c-0.417-0-0.817-0.166-1.111-0.461s-0.461-0.694-0.462-1.111h0zM12.918 30.127v-15.698h5.655v15.698h-5.655zM27.361 28.555c-0.001 0.416-0.167 0.815-0.461 1.11s-0.694 0.46-1.11 0.461h-5.34v-15.698h6.911v14.126z"></path>
</svg>
