<!-- Generated by IcoMoon.io -->
<svg version="1.1" xmlns="http://www.w3.org/2000/svg" width="32" height="32" viewBox="0 0 32 32">
<title>historical</title>
<path d="M17.36 2.626l1.57 2.617c0.655 1.091 1.204 2.007 1.581 2.808 0.399 0.848 0.66 1.68 0.66 2.616s-0.262 1.767-0.66 2.616c-0.253 0.539-0.584 1.129-0.973 1.789 0.65-0.278 1.331-0.407 2.062-0.469 0.882-0.074 1.95-0.056 3.222-0.035l3.052 0.051 2.274-1.313 1.524 2.639-2.274 1.313-1.481 2.669c-0.618 1.113-1.136 2.046-1.641 2.773-0.535 0.77-1.125 1.412-1.935 1.88s-1.661 0.657-2.595 0.736c-0.883 0.075-1.95 0.057-3.223 0.035l-1.162-0.020v5.907h-3.048v-5.907l-1.162 0.020c-1.273 0.021-2.34 0.039-3.223-0.035-0.934-0.079-1.785-0.268-2.595-0.736s-1.4-1.11-1.935-1.88c-0.506-0.727-1.024-1.66-1.642-2.773l-1.481-2.669-2.274-1.313 1.524-2.639 2.274 1.313 3.052-0.051c1.273-0.021 2.34-0.039 3.222 0.035 0.732 0.062 1.412 0.191 2.062 0.469-0.389-0.66-0.72-1.251-0.973-1.789-0.399-0.848-0.66-1.68-0.66-2.616s0.262-1.767 0.66-2.616c0.377-0.801 0.926-1.717 1.581-2.808l1.57-2.617v-2.626h3.048v2.626zM14.033 22.288l-0.417-0.752c-0.663-1.195-1.108-1.992-1.515-2.578-0.387-0.557-0.671-0.816-0.957-0.981s-0.652-0.281-1.328-0.338c-0.711-0.060-1.623-0.046-2.99-0.023l-0.86 0.014 0.417 0.752c0.663 1.195 1.108 1.992 1.515 2.578 0.387 0.557 0.671 0.815 0.957 0.981s0.652 0.281 1.328 0.338c0.711 0.060 1.623 0.046 2.99 0.023l0.86-0.014zM17.639 22.288l0.86 0.014c1.367 0.023 2.279 0.037 2.99-0.023 0.676-0.057 1.042-0.173 1.328-0.338s0.569-0.424 0.957-0.981c0.407-0.585 0.852-1.382 1.515-2.578l0.417-0.752-0.86-0.014c-1.367-0.023-2.279-0.037-2.99 0.023-0.676 0.057-1.042 0.173-1.328 0.338s-0.569 0.424-0.957 0.981c-0.407 0.585-0.852 1.382-1.515 2.578l-0.417 0.752zM15.836 6.009l-0.442 0.737c-0.703 1.172-1.171 1.956-1.475 2.601-0.289 0.614-0.371 0.989-0.371 1.319s0.082 0.705 0.371 1.319c0.303 0.645 0.771 1.429 1.475 2.601l0.442 0.737 0.442-0.737c0.703-1.172 1.171-1.956 1.475-2.601 0.289-0.614 0.371-0.989 0.371-1.319s-0.082-0.705-0.371-1.319c-0.303-0.645-0.771-1.429-1.475-2.601l-0.442-0.737z"></path>
</svg>
