<!-- Generated by IcoMoon.io -->
<svg version="1.1" xmlns="http://www.w3.org/2000/svg" width="32" height="32" viewBox="0 0 32 32">
<title>horror</title>
<path d="M10.2 7.2c0.515 0 0.933-0.418 0.933-0.933s-0.418-0.933-0.933-0.933c-0.515 0-0.933 0.418-0.933 0.933s0.418 0.933 0.933 0.933z"></path>
<path d="M15.467 7.2c0.516 0 0.933-0.418 0.933-0.933s-0.418-0.933-0.933-0.933c-0.515 0-0.933 0.418-0.933 0.933s0.418 0.933 0.933 0.933z"></path>
<path d="M10 12.2c0 1 0.267 1.933 0.667 2.667 0.533 0.867 1.267 1.4 2.133 1.4s1.6-0.467 2.133-1.4c0.467-0.733 0.667-1.667 0.667-2.667s-0.267-1.933-0.667-2.667c-0.533-0.867-1.267-1.4-2.133-1.4s-1.6 0.467-2.133 1.4c-0.4 0.667-0.667 1.667-0.667 2.667zM12.8 10c0.333 0 0.933 0.8 0.933 2.2s-0.6 2.2-0.933 2.2c-0.333 0-0.933-0.8-0.933-2.2s0.6-2.2 0.933-2.2z"></path>
<path d="M31.067 26.4h-0.4v-2.2c0-0.4-0.267-0.733-0.6-0.867l-6.333-2.333c1.133-0.933 2.067-2.067 2.8-3.267 1.067-1.867 1.667-4 1.667-6.133v-2c0-0.4-0.267-0.733-0.6-0.867-0.4-0.133-0.8 0-1.067 0.267l-1.267 1.533c-0.4 0.467-0.933 0.733-1.533 0.733-1.067 0-1.933-0.867-1.933-1.933v-0.267c0-5-4-9.067-9-9.067-4.933 0-9 4.067-9 9v2.533c0 2.133 0.6 4.267 1.667 6.133 0.733 1.267 1.667 2.4 2.8 3.267l-6.333 2.4c-0.4 0.133-0.6 0.467-0.6 0.867v2.2h-0.4c-0.533 0-0.933 0.4-0.933 0.933v3.733c0 0.533 0.4 0.933 0.933 0.933h30.133c0.533 0 0.933-0.4 0.933-0.933v-3.733c0-0.533-0.4-0.933-0.933-0.933zM18.533 26.4c-0.533 0-1.067 0.133-1.533 0.4v-1.333c0-1.133 0.533-2.133 1.467-2.8s2.067-0.8 3.133-0.4l7.267 2.667v1.467h-10.333zM5.667 11.533v-2.533c0-3.933 3.2-7.133 7.133-7.133s7.133 3.2 7.133 7.133v0.267c0 2.133 1.733 3.8 3.8 3.8 0.933 0 1.867-0.333 2.533-0.933-0.2 3.333-1.933 6.333-4.733 8.133-1.467-0.333-3 0-4.2 0.8-0.533 0.4-1 0.8-1.333 1.333-0.333-0.533-0.8-1-1.333-1.333-1.2-0.867-2.733-1.133-4.2-0.8-2.933-1.867-4.8-5.2-4.8-8.733zM3.2 24.867l7.267-2.667c1.067-0.4 2.2-0.267 3.133 0.4s1.467 1.667 1.467 2.8v1.333c-0.467-0.267-1-0.4-1.533-0.4h-10.333v-1.467zM1.867 28.267h11.6c0.867 0 1.533 0.733 1.533 1.533v0.333h-13.133v-1.867zM30.133 30.133h-13.2v-0.333c0-0.867 0.733-1.533 1.533-1.533h11.6v1.867h0.067z"></path>
</svg>
