<svg width="13" height="16" viewBox="0 0 13 16" fill="none" xmlns="http://www.w3.org/2000/svg">
<path d="M6.5 8.01167e-09C4.7873 -8.43115e-05 3.14377 0.665405 1.92663 1.85183C0.7095 3.03825 0.017127 4.64971 0 6.33598C0 10.72 5.72813 15.5999 5.97188 15.8079C6.11905 15.9319 6.30634 16 6.5 16C6.69366 16 6.88095 15.9319 7.02812 15.8079C7.3125 15.5999 13 10.72 13 6.33598C12.9829 4.64971 12.2905 3.03825 11.0734 1.85183C9.85623 0.665405 8.2127 -8.43115e-05 6.5 8.01167e-09ZM6.5 14.12C5.14313 12.848 1.625 9.31997 1.625 6.33598C1.625 5.06294 2.13861 3.84205 3.05285 2.94188C3.96709 2.04171 5.20707 1.536 6.5 1.536C7.79293 1.536 9.03291 2.04171 9.94715 2.94188C10.8614 3.84205 11.375 5.06294 11.375 6.33598C11.375 9.29597 7.85687 12.848 6.5 14.12Z" fill="white"/>
<path d="M6.5 3.19999C5.93756 3.19999 5.38775 3.36421 4.9201 3.67187C4.45244 3.97954 4.08795 4.41684 3.87272 4.92847C3.65748 5.4401 3.60116 6.00309 3.71089 6.54623C3.82062 7.08938 4.09146 7.58829 4.48917 7.97987C4.88687 8.37146 5.39358 8.63813 5.94521 8.74617C6.49685 8.85421 7.06863 8.79876 7.58826 8.58683C8.10788 8.37491 8.55202 8.01603 8.86449 7.55557C9.17697 7.09512 9.34375 6.55377 9.34375 5.99998C9.34375 5.25738 9.04414 4.54519 8.51083 4.02009C7.97753 3.49499 7.25421 3.19999 6.5 3.19999ZM6.5 7.19998C6.25895 7.19998 6.02332 7.1296 5.8229 6.99774C5.62248 6.86588 5.46627 6.67847 5.37402 6.4592C5.28178 6.23993 5.25764 5.99865 5.30467 5.76587C5.35169 5.5331 5.46777 5.31928 5.63821 5.15145C5.80866 4.98363 6.02582 4.86934 6.26223 4.82304C6.49865 4.77674 6.7437 4.8005 6.9664 4.89133C7.18909 4.98215 7.37944 5.13596 7.51335 5.3333C7.64727 5.53064 7.71875 5.76264 7.71875 5.99998C7.71875 6.31824 7.59035 6.62346 7.36179 6.84851C7.13323 7.07355 6.82323 7.19998 6.5 7.19998Z" fill="white"/>
</svg>
