<!-- Generated by IcoMoon.io -->
<svg version="1.1" xmlns="http://www.w3.org/2000/svg" width="30" height="32" viewBox="0 0 30 32">
<title>philosophy</title>
<path d="M27.84 19.040c0 0-3.44-3.52-3.44-6.8 0-3.44-1.52-6.8-4.080-9.12s-6-3.44-9.6-2.96c-5.28 0.56-9.76 4.8-10.56 10.080-0.64 4.32 0.8 6.88 2.4 9.6 1.52 2.64 3.040 5.36 3.040 10.16v2h11.28v-3.84h6.56v-5.92l5.44-2.16-1.040-1.040zM21.6 20.96v5.36h-6.56v3.84h-7.52v-0.16c0-5.28-1.76-8.4-3.36-11.12-1.52-2.64-2.72-4.72-2.16-8.4 0.72-4.4 4.48-8 8.96-8.56 2.96-0.32 5.84 0.56 8.080 2.56 2.24 1.92 3.44 4.8 3.44 7.68s1.92 5.68 3.12 7.12l-4 1.68z"></path>
<path d="M15.92 7.52c-0.24 0-1.92 0.080-3.76 2.16-1.84-2.16-3.52-2.16-3.76-2.16-2.080 0-3.76 1.68-3.76 3.76s1.68 3.76 3.76 3.76c0.24 0 1.92-0.080 3.76-2.16 1.84 2.16 3.52 2.16 3.76 2.16 2.080 0 3.76-1.68 3.76-3.76s-1.68-3.76-3.76-3.76zM8.4 13.12c-1.040 0-1.84-0.88-1.84-1.84s0.8-1.84 1.84-1.84c0.16 0 1.28 0.16 2.64 1.84-1.28 1.68-2.48 1.84-2.64 1.84zM16 13.12c-0.16 0-1.28-0.16-2.64-1.84 1.36-1.76 2.48-1.84 2.64-1.84 1.040 0 1.84 0.88 1.84 1.84s-0.88 1.84-1.84 1.84z"></path>
</svg>
