<!-- Generated by IcoMoon.io -->
<svg version="1.1" xmlns="http://www.w3.org/2000/svg" width="32" height="32" viewBox="0 0 32 32">
<title>phone</title>
<path d="M23.307 32h0.045c0.845 0 1.643-0.333 2.248-0.938l4.339-4.339c0.149-0.148 0.267-0.325 0.347-0.519s0.122-0.402 0.122-0.612-0.041-0.418-0.122-0.612c-0.081-0.194-0.199-0.37-0.347-0.519l-6.4-6.4c-0.148-0.149-0.325-0.267-0.519-0.347s-0.402-0.122-0.612-0.122-0.418 0.041-0.612 0.122c-0.194 0.081-0.37 0.198-0.519 0.347l-2.551 2.55c-1.182-0.352-3.389-1.152-4.787-2.55s-2.198-3.605-2.55-4.787l2.55-2.55c0.149-0.148 0.267-0.325 0.347-0.519s0.122-0.402 0.122-0.612c0-0.21-0.041-0.418-0.122-0.612s-0.198-0.37-0.347-0.519l-6.4-6.4c-0.306-0.289-0.711-0.45-1.131-0.45s-0.825 0.161-1.131 0.45l-4.338 4.339c-0.608 0.608-0.95 1.443-0.938 2.296 0.037 2.278 0.64 10.192 6.877 16.429s14.151 6.839 16.429 6.875zM6.409 5.453l4.138 4.138-2.069 2.069c-0.188 0.188-0.327 0.42-0.402 0.675s-0.087 0.525-0.031 0.785c0.038 0.184 0.978 4.547 3.634 7.203s7.019 3.595 7.203 3.634c0.26 0.055 0.53 0.045 0.785-0.031s0.487-0.214 0.674-0.403l2.069-2.069 4.138 4.138-3.21 3.208c-1.997-0.034-8.829-0.57-14.197-5.94-5.386-5.386-5.907-12.242-5.939-14.199l3.208-3.208zM28.8 14.399h3.2c0-8.208-6.197-14.399-14.417-14.399v3.2c6.499 0 11.216 4.709 11.216 11.199z"></path>
<path d="M17.599 9.6c3.365 0 4.8 1.435 4.8 4.8h3.2c0-5.16-2.84-8-8-8v3.2z"></path>
</svg>
