<svg width="15" height="15" viewBox="0 0 15 15" fill="none" xmlns="http://www.w3.org/2000/svg">
<path fill-rule="evenodd" clip-rule="evenodd" d="M2.6632 0.433342C3.21469 -0.119236 4.16485 -0.179826 4.7232 0.46439L7.0298 3.12676C7.53393 3.70874 7.43066 4.548 6.9289 5.05217L6.92791 5.05316L6.19684 5.78473C6.95139 7.00901 7.98132 8.0404 9.20453 8.7967L9.93713 8.06307C10.4392 7.55985 11.2765 7.45581 11.858 7.95499C11.858 7.955 11.858 7.95498 11.858 7.95499L14.5306 10.2491C15.1802 10.8071 15.1204 11.7616 14.5673 12.3148L12.6532 14.2321C11.9022 14.984 10.7546 15.2288 9.79755 14.764C5.62261 12.7404 2.25328 9.36646 0.235499 5.18888C-0.228354 4.23181 0.0160285 3.08479 0.766437 2.33341M0.766437 2.33341L2.6632 0.433342C2.66323 0.433309 2.66316 0.433375 2.6632 0.433342M8.99658 9.0052C8.9985 9.00319 9.00043 9.00121 9.00239 8.99924L8.99658 9.0052ZM5.98934 5.99211L5.99542 5.98617C5.99342 5.98817 5.99139 5.99015 5.98934 5.99211ZM3.69536 1.36358C3.68161 1.36363 3.65527 1.36957 3.62837 1.39653L1.73151 3.29669C1.35328 3.67536 1.2743 4.20628 1.46282 4.59471L1.46338 4.59587C3.34762 8.49697 6.49399 11.6476 10.3927 13.5372C10.7801 13.7254 11.3102 13.6471 11.6881 13.2688C11.6882 13.2688 11.6881 13.2689 11.6881 13.2688L13.6026 11.351C13.6298 11.3239 13.6364 11.2965 13.6365 11.282C13.6365 11.2807 13.6364 11.2795 13.6363 11.2785L10.9738 8.99302C10.9722 8.99289 10.9698 8.99283 10.9664 8.99307C10.9515 8.99416 10.9267 9.0018 10.9025 9.02605L9.97624 9.95364C9.82644 10.1075 9.63087 10.209 9.41861 10.2428C9.20308 10.2771 8.98224 10.2397 8.79 10.1363C8.78691 10.1347 8.78383 10.133 8.78076 10.1313C8.77802 10.1298 8.7753 10.1282 8.77258 10.1266C7.14805 9.1912 5.80048 7.84194 4.86711 6.21628C4.86394 6.21077 4.86086 6.20521 4.85785 6.19962C4.7545 6.00735 4.71707 5.78649 4.75132 5.57091C4.78503 5.35868 4.88638 5.1631 5.04013 5.01321L5.96236 4.09036C5.96246 4.09025 5.96226 4.09046 5.96236 4.09036C5.98717 4.06528 5.9952 4.03951 5.99626 4.02423C5.99652 4.02044 5.99642 4.01783 5.99623 4.01618L3.69816 1.36365C3.69735 1.36361 3.69641 1.36358 3.69536 1.36358ZM5.99603 4.01479C5.99579 4.01421 5.99572 4.01387 5.99575 4.01384L5.99603 4.01479ZM10.9764 8.99348C10.9763 8.99349 10.976 8.99343 10.9755 8.99324L10.9764 8.99348ZM10.9698 8.9896C10.9698 8.98961 10.9698 8.98959 10.9698 8.9896V8.9896Z" fill="#444444"/>
</svg>
