<!-- Generated by IcoMoon.io -->
<svg version="1.1" xmlns="http://www.w3.org/2000/svg" width="48" height="32" viewBox="0 0 48 32">
<title>quick-view</title>
<path d="M24 27.077c-2.653 0-4.804-2.204-4.804-4.923s2.151-4.923 4.804-4.923c2.653 0 4.804 2.204 4.804 4.923s-2.151 4.923-4.804 4.923zM24 32c5.306 0 9.608-4.408 9.608-9.846s-4.302-9.846-9.608-9.846-9.608 4.408-9.608 9.846c0 5.438 4.301 9.846 9.608 9.846z"></path>
<path d="M8.023 13.612c2.655-4.354 7.358-8.689 15.977-8.689s13.322 4.335 15.977 8.689c1.354 2.22 2.176 4.459 2.658 6.154 0.24 0.843 0.393 1.54 0.484 2.016 0.045 0.238 0.076 0.419 0.094 0.535 0.009 0.058 0.015 0.1 0.018 0.124l0.003 0.020c0-0.001-0-0.002 2.383-0.307s2.383-0.307 2.383-0.308l-0-0.003-0.001-0.007-0.003-0.020-0.008-0.062c-0.007-0.051-0.017-0.119-0.030-0.206-0.027-0.172-0.067-0.414-0.125-0.715-0.115-0.601-0.3-1.443-0.586-2.446-0.569-1.997-1.548-4.681-3.196-7.385-3.349-5.492-9.455-11.003-20.051-11.003s-16.702 5.511-20.051 11.003c-1.649 2.704-2.628 5.387-3.196 7.385-0.285 1.003-0.471 1.845-0.586 2.446-0.058 0.301-0.098 0.542-0.125 0.715-0.013 0.086-0.023 0.155-0.030 0.206l-0.008 0.062-0.003 0.020-0.001 0.007-0 0.003c-0 0.001-0 0.003 2.383 0.308s2.383 0.306 2.383 0.307l-0 0.004c-0 0.001-0 0.002 0 0l0.003-0.024c0.003-0.024 0.009-0.066 0.018-0.124 0.018-0.116 0.048-0.298 0.094-0.535 0.091-0.476 0.244-1.173 0.484-2.016 0.482-1.695 1.305-3.934 2.658-6.154z"></path>
</svg>
