<!-- Generated by IcoMoon.io -->
<svg version="1.1" xmlns="http://www.w3.org/2000/svg" width="42" height="32" viewBox="0 0 42 32">
<title>quote</title>
<path d="M17.78 2.282l-1.511-2.282c-10.459 6.902-16.269 15.287-16.269 22.189 0 6.674 4.997 9.811 9.239 9.811 5.345 0 9.122-4.449 9.122-9.127 0-3.936-2.557-7.301-5.985-8.556-0.988-0.342-1.917-0.627-1.917-2.282 0-2.111 1.569-5.248 7.321-9.754zM40.847 2.282l-1.511-2.282c-10.342 6.902-16.269 15.287-16.269 22.189 0 6.674 5.113 9.811 9.355 9.811 5.404 0 9.239-4.449 9.239-9.127 0-3.936-2.615-7.301-6.159-8.556-0.988-0.342-1.859-0.627-1.859-2.282 0-2.111 1.627-5.248 7.205-9.754z"></path>
</svg>
