<!-- Generated by IcoMoon.io -->
<svg version="1.1" xmlns="http://www.w3.org/2000/svg" width="30" height="32" viewBox="0 0 30 32">
<title>regilion</title>
<path d="M28.88 21.36l-3.12-5.36 3.12-5.36c0.48-0.8 0.48-1.84 0-2.64s-1.36-1.28-2.24-1.28h-6.24l-3.12-5.36c-0.48-0.88-1.36-1.36-2.24-1.36-0.96 0-1.76 0.48-2.24 1.28l-3.2 5.44h-6.16c-0.96 0-1.84 0.48-2.32 1.28s-0.48 1.84 0 2.64l3.12 5.36-3.12 5.36c-0.48 0.8-0.48 1.84 0 2.64s1.36 1.28 2.24 1.28h6.24l3.12 5.36c0.48 0.8 1.36 1.28 2.24 1.28 0.96 0 1.76-0.48 2.24-1.28l3.12-5.36h6.24c0.96 0 1.76-0.48 2.24-1.28 0.56-0.8 0.56-1.84 0.080-2.64zM26.64 8.56c0.24 0 0.48 0.16 0.64 0.4s0.16 0.48 0 0.72l-2.56 4.48-3.2-5.52h5.12v-0.080zM23.6 16l-4.32 7.44h-8.56l-4.32-7.44 4.32-7.44h8.56l4.32 7.44zM14.4 2.24c0.16-0.24 0.4-0.4 0.64-0.4s0.48 0.16 0.64 0.4l2.56 4.48h-6.4l2.56-4.48zM2.8 9.68c-0.16-0.24-0.16-0.48 0-0.72s0.4-0.4 0.64-0.4h5.12l-3.2 5.52-2.56-4.4zM3.44 23.44c-0.24 0-0.48-0.16-0.64-0.4s-0.16-0.48 0-0.72l2.56-4.48 3.2 5.52-5.12 0.080zM15.68 29.76c-0.16 0.24-0.4 0.4-0.64 0.4s-0.48-0.16-0.64-0.4l-2.56-4.48h6.4l-2.56 4.48zM27.2 23.040c-0.16 0.24-0.4 0.4-0.64 0.4h-5.12l3.2-5.52 2.56 4.48c0.16 0.16 0.16 0.4 0 0.64z"></path>
</svg>
