<!-- Generated by IcoMoon.io -->
<svg version="1.1" xmlns="http://www.w3.org/2000/svg" width="32" height="32" viewBox="0 0 32 32">
<title>returned-order</title>
<path d="M19.759 30.080c0.508-0.228 0.711-0.777 0.457-1.234s-0.863-0.64-1.372-0.411l-2.591 1.188v-15.355l5.079-2.285v3.107c0 0.503 0.457 0.914 1.016 0.914s1.016-0.411 1.016-0.914v-4.021l5.079-2.285-0 9.962c0 0.503 0.457 0.914 1.016 0.914s1.016-0.411 1.016-0.914v-11.424c0-0.365-0.203-0.685-0.559-0.822l-14.222-6.398c-0.305-0.137-0.609-0.137-0.914 0l-14.222 6.398c-0.356 0.137-0.559 0.457-0.559 0.822v17.366c0 0.365 0.203 0.685 0.559 0.822l14.222 6.398c0.152 0.046 0.305 0.092 0.457 0.092s0.305-0.046 0.457-0.091l4.063-1.828zM15.238 1.93l11.936 5.392-4.826 2.194-11.937-5.392 4.826-2.194zM14.222 29.623l-12.19-5.484v-15.355l12.19 5.484v15.355zM15.238 12.716l-11.937-5.392 4.825-2.194 11.936 5.392-4.825 2.194z"></path>
<path d="M28.495 23.774l-0.254-0.274c-0.356-0.32-1.219-1.097-2.337-1.097s-1.372 0.228-1.828 0.64c-0.406 0.366-1.016 0.366-1.422 0s-0.406-0.914 0-1.279c0.559-0.503 1.321-1.188 3.251-1.188s3.251 1.188 3.759 1.645l0.305 0.274c0-0.503 0.457-0.914 1.016-0.914s1.016 0.411 1.016 0.914l-0 2.194c0 0.503-0.457 0.914-1.016 0.914h-2.489c-0.559 0-1.016-0.411-1.016-0.914s0.457-0.914 1.016-0.914v0z"></path>
<path d="M25.346 26.973l0.254 0.274c0.356 0.32 1.219 1.097 2.336 1.097s1.372-0.228 1.828-0.64c0.406-0.365 1.016-0.365 1.422 0s0.406 0.914 0 1.28c-0.558 0.503-1.32 1.188-3.25 1.188s-3.251-1.188-3.759-1.645l-0.305-0.274c0 0.503-0.457 0.914-1.016 0.914s-1.016-0.412-1.016-0.914l0-2.193c0-0.503 0.457-0.914 1.016-0.914h2.489c0.559 0 1.016 0.411 1.016 0.914s-0.457 0.914-1.016 0.914v-0z"></path>
</svg>
