<!-- Generated by IcoMoon.io -->
<svg version="1.1" xmlns="http://www.w3.org/2000/svg" width="39" height="32" viewBox="0 0 39 32">
<title>romance</title>
<path d="M18.824 4.8c-7.624 0-14.306 4.706-17.882 12.706-0.094 0.282-0.094 0.659 0 0.941 3.576 7.906 10.259 12.706 17.882 12.706s14.306-4.706 17.882-12.706c0.094-0.282 0.094-0.659 0-0.941-3.576-8-10.259-12.706-17.882-12.706zM18.824 28.706c-6.494 0-12.235-4.047-15.435-10.729 3.2-6.776 8.941-10.824 15.435-10.824s12.235 4.047 15.435 10.729c-3.2 6.871-8.941 10.824-15.435 10.824z"></path>
<path d="M22.212 13.553c-1.035-0.376-2.259-0.282-3.294 0.376l-0.094 0.094-0.094-0.094c-1.6-1.129-3.859-0.659-4.988 0.941-1.035 1.6-0.659 3.671 0.847 4.8l3.576 2.635c0.471 0.282 1.035 0.282 1.412 0l3.576-2.635c1.6-1.224 1.882-3.388 0.753-4.988-0.565-0.471-1.035-0.941-1.694-1.129zM21.647 17.788l-2.824 2.071-2.824-2.071c-0.565-0.376-0.659-1.129-0.282-1.6s1.035-0.659 1.6-0.282l0.753 0.565c0.376 0.282 0.941 0.282 1.318 0l0.753-0.565c0.565-0.376 1.224-0.188 1.6 0.282 0.094 0.094 0.094 0.188 0.188 0.376 0.282 0.471 0.094 0.941-0.282 1.224z"></path>
<path d="M18.824 8.376c-5.271 0-9.6 4.329-9.6 9.6s4.329 9.6 9.6 9.6c5.271 0 9.6-4.329 9.6-9.6s-4.329-9.6-9.6-9.6zM18.824 25.129c-3.953 0-7.153-3.2-7.153-7.153s3.2-7.153 7.153-7.153c3.953 0 7.153 3.2 7.153 7.153s-3.2 7.153-7.153 7.153z"></path>
<path d="M18.824 3.576c0.659 0 1.224-0.565 1.224-1.224v-1.129c0-0.659-0.565-1.224-1.224-1.224s-1.224 0.565-1.224 1.224v1.224c0 0.565 0.565 1.129 1.224 1.129z"></path>
<path d="M8.188 4.329c0.376 0.565 1.035 0.753 1.6 0.471 0.565-0.376 0.753-1.035 0.471-1.6l-0.565-1.035c-0.376-0.565-1.035-0.847-1.6-0.471-0.659 0.282-0.847 1.035-0.471 1.6l0.565 1.035z"></path>
<path d="M2.259 11.953c0.659 0 1.224-0.565 1.224-1.224 0-0.471-0.188-0.847-0.565-1.035l-1.129-0.565c-0.565-0.376-1.318-0.094-1.6 0.471-0.376 0.565-0.094 1.318 0.471 1.6l1.035 0.565c0.094 0.188 0.376 0.188 0.565 0.188z"></path>
<path d="M27.765 4.8c0.565 0.376 1.318 0.094 1.6-0.471l0.565-1.035c0.376-0.565 0.094-1.318-0.471-1.6-0.565-0.376-1.318-0.094-1.6 0.471l-0.565 1.035c-0.282 0.565-0.094 1.224 0.471 1.6z"></path>
<path d="M37.459 9.6c-0.376-0.565-1.035-0.753-1.6-0.471l-1.035 0.565c-0.565 0.376-0.753 1.035-0.471 1.6 0.376 0.565 1.035 0.753 1.6 0.471l1.035-0.565c0.659-0.282 0.847-1.035 0.471-1.6z"></path>
</svg>
