<!-- Generated by IcoMoon.io -->
<svg version="1.1" xmlns="http://www.w3.org/2000/svg" width="27" height="32" viewBox="0 0 27 32">
<title>secure-payment</title>
<path d="M11.25 19.789c0.553 0 1.082-0.222 1.473-0.617s0.61-0.93 0.61-1.489c0-0.558-0.22-1.094-0.61-1.489s-0.921-0.617-1.473-0.617c-0.553 0-1.082 0.222-1.473 0.617s-0.61 0.93-0.61 1.489c0 0.558 0.22 1.094 0.61 1.489s0.921 0.617 1.473 0.617z"></path>
<path d="M5.417 5.895c0-1.563 0.615-3.063 1.709-4.168s2.578-1.727 4.125-1.727c1.547 0 3.031 0.621 4.125 1.727s1.709 2.605 1.709 4.168v1.684h1.667c0.995 0 1.948 0.399 2.652 1.11s1.098 1.675 1.098 2.68v12.632c0 1.005-0.395 1.969-1.098 2.68s-1.657 1.11-2.652 1.11h-15c-0.995 0-1.948-0.399-2.652-1.11s-1.098-1.675-1.098-2.68v-12.632c0-1.005 0.395-1.969 1.098-2.68s1.657-1.11 2.652-1.11h1.667v-1.684zM14.583 5.895c0-0.893-0.351-1.75-0.976-2.382s-1.473-0.987-2.357-0.987-1.732 0.355-2.357 0.987c-0.625 0.632-0.976 1.488-0.976 2.382v1.684h6.667v-1.684zM2.5 11.368v12.632c0 0.697 0.56 1.263 1.25 1.263h15c0.331 0 0.649-0.133 0.884-0.37s0.366-0.558 0.366-0.893v-12.632c0-0.335-0.132-0.656-0.366-0.893s-0.552-0.37-0.884-0.37h-15c-0.332 0-0.649 0.133-0.884 0.37s-0.366 0.558-0.366 0.893z"></path>
<path d="M9.583 32c-0.776 0-1.532-0.243-2.166-0.695s-1.112-1.092-1.371-1.831h13.537c1.216 0 2.381-0.488 3.241-1.357s1.342-2.047 1.342-3.275v-11.153c0.731 0.261 1.364 0.745 1.812 1.385s0.688 1.405 0.688 2.189v7.579c0 0.94-0.183 1.871-0.539 2.739s-0.878 1.657-1.535 2.322c-0.658 0.665-1.439 1.192-2.298 1.552s-1.781 0.545-2.711 0.545h-10z"></path>
</svg>
