<!-- Generated by IcoMoon.io -->
<svg version="1.1" xmlns="http://www.w3.org/2000/svg" width="32" height="32" viewBox="0 0 32 32">
<title>shipping-truck</title>
<path d="M31.12 14.463c-0.006-0.016-0.013-0.030-0.020-0.047l-1.424-3.206c-0.25-0.563-0.658-1.041-1.174-1.377s-1.119-0.514-1.735-0.515h-5.37v-0.73c0-0.646-0.256-1.265-0.712-1.722s-1.074-0.716-1.72-0.718h-1.352c-0.308-2.289-1.712-4.285-3.762-5.35s-4.49-1.065-6.54 0c-2.050 1.065-3.454 3.060-3.762 5.35h-1.117c-0.646 0.002-1.265 0.26-1.72 0.718s-0.712 1.077-0.712 1.723v18.435c0 0.646 0.256 1.265 0.712 1.723s1.075 0.716 1.72 0.718h2.151c0.229 0.967 0.883 1.778 1.78 2.207s1.938 0.429 2.835 0c0.896-0.429 1.551-1.24 1.78-2.207h11.77c0.228 0.973 0.887 1.789 1.789 2.218s1.951 0.424 2.849-0.014c0.898-0.437 1.549-1.26 1.768-2.235 0.779-0.063 1.506-0.417 2.037-0.99s0.826-1.325 0.829-2.107v-9.183c0-0.445-0.093-0.886-0.275-1.293l-0.624-1.398zM30.345 16.482c0.094 0.212 0.143 0.441 0.143 0.672v2.722h-4.335c-0.037 0-0.072-0.014-0.098-0.040s-0.041-0.061-0.041-0.098v-4.099c0-0.037 0.015-0.072 0.041-0.098s0.061-0.040 0.098-0.040h3.757l0.434 0.981zM10.579 1.527c1.441 0.002 2.824 0.561 3.862 1.56s1.649 2.36 1.707 3.799v0.023c0 0.009 0.007 0.025 0.008 0.039 0 0.053 0.008 0.102 0.008 0.159h-0c0 1.48-0.588 2.899-1.634 3.945s-2.466 1.634-3.945 1.634c-1.48 0-2.899-0.588-3.945-1.634s-1.634-2.465-1.634-3.945c0-1.48 0.588-2.899 1.634-3.945s2.465-1.634 3.945-1.634l-0.005-0zM1.528 27.024v-18.435c0-0.241 0.095-0.473 0.265-0.644s0.4-0.269 0.642-0.271h1.065c0.191 2.395 1.579 4.531 3.691 5.676s4.66 1.146 6.771 0c2.112-1.146 3.5-3.282 3.691-5.676h1.308c0.242-0.001 0.475 0.095 0.645 0.267s0.265 0.406 0.261 0.648v19.353h-8.887c-0.227-0.97-0.881-1.784-1.779-2.214s-1.943-0.43-2.84 0c-0.898 0.43-1.552 1.245-1.779 2.214h-2.149c-0.242-0.002-0.473-0.1-0.643-0.272s-0.265-0.404-0.264-0.646l0.003 0zM7.783 30.471l0-0c-0.469 0.001-0.92-0.185-1.252-0.516s-0.52-0.781-0.521-1.25c-0.001-0.469 0.184-0.92 0.515-1.253s0.78-0.521 1.25-0.523c0.469-0.002 0.92 0.183 1.254 0.513s0.522 0.78 0.525 1.249v0.026c-0.005 0.467-0.194 0.913-0.525 1.242s-0.78 0.512-1.247 0.512l0.003 0zM25.947 30.471l0-0c-0.47 0-0.921-0.187-1.253-0.519s-0.519-0.783-0.519-1.253c0-0.47 0.187-0.92 0.519-1.253s0.783-0.519 1.253-0.518c0.47 0 0.92 0.187 1.253 0.519s0.518 0.783 0.518 1.253c-0.001 0.47-0.188 0.921-0.521 1.253s-0.784 0.518-1.254 0.517l0.003 0zM29.138 27.914l0-0c-0.234-0.964-0.892-1.771-1.789-2.194s-1.938-0.419-2.831 0.013c-0.893 0.431-1.544 1.244-1.77 2.21h-1.35v-17.098h5.373c0.321 0 0.635 0.094 0.904 0.268s0.481 0.424 0.612 0.717l0.952 2.146h-3.083c-0.441 0-0.864 0.175-1.176 0.488s-0.488 0.735-0.488 1.176v4.099c0 0.441 0.176 0.864 0.488 1.176s0.735 0.487 1.176 0.487h4.336v4.938c-0.001 0.381-0.138 0.749-0.387 1.038s-0.592 0.479-0.969 0.536l0.003 0.001z"></path>
<path d="M9.255 9.412c0.143 0.143 0.337 0.223 0.539 0.223s0.397-0.080 0.54-0.223l3.538-3.533c0.298-0.298 0.298-0.781 0-1.079s-0.781-0.298-1.079 0l-2.998 2.995-1.424-1.429c-0.298-0.299-0.782-0.3-1.081-0.002s-0.3 0.782-0.002 1.081l1.967 1.967z"></path>
</svg>
