<!-- Generated by IcoMoon.io -->
<svg version="1.1" xmlns="http://www.w3.org/2000/svg" width="31" height="32" viewBox="0 0 31 32">
<title>sold</title>
<path d="M0.002 2.021c0-0.294 0.117-0.577 0.325-0.785s0.49-0.325 0.785-0.325h0.972c1.614 0 2.542 1.050 3.079 2.098 0.366 0.717 0.63 1.592 0.85 2.351h22.853c0.343 0 0.681 0.080 0.988 0.232s0.575 0.375 0.782 0.648 0.348 0.591 0.411 0.928c0.063 0.337 0.048 0.684-0.045 1.014l-3.321 11.71c-0.264 0.929-0.824 1.747-1.595 2.329s-1.71 0.897-2.676 0.897h-11.274c-0.974 0-1.921-0.32-2.695-0.91s-1.333-1.42-1.589-2.359l-1.425-5.228c-0.008-0.023-0.016-0.047-0.022-0.071l-2.289-7.763-0.222-0.748c-0.222-0.768-0.417-1.447-0.71-2.018-0.353-0.688-0.677-0.888-1.101-0.888h-0.972c-0.294 0-0.577-0.117-0.785-0.325s-0.325-0.49-0.325-0.785l0.002-0.002zM8.544 13.95l1.45 5.319c0.129 0.47 0.408 0.884 0.795 1.179s0.861 0.455 1.347 0.455h11.277c0.483-0 0.952-0.158 1.337-0.449s0.665-0.7 0.796-1.164l3.321-11.71h-22.198l1.876 6.371z"></path>
<path d="M15.548 28.667c0 0.883-0.351 1.73-0.975 2.354s-1.471 0.975-2.354 0.975c-0.883 0-1.73-0.351-2.354-0.975s-0.975-1.471-0.975-2.354c0-0.883 0.351-1.73 0.975-2.354s1.471-0.975 2.354-0.975c0.883 0 1.73 0.351 2.354 0.975s0.975 1.471 0.975 2.354zM13.328 28.667c0-0.294-0.117-0.577-0.325-0.785s-0.49-0.325-0.785-0.325c-0.294 0-0.577 0.117-0.785 0.325s-0.325 0.491-0.325 0.785c0 0.294 0.117 0.577 0.325 0.785s0.491 0.325 0.785 0.325c0.294 0 0.577-0.117 0.785-0.325s0.325-0.49 0.325-0.785z"></path>
<path d="M26.647 28.667c0 0.883-0.351 1.73-0.975 2.354s-1.471 0.975-2.354 0.975c-0.883 0-1.73-0.351-2.354-0.975s-0.975-1.471-0.975-2.354 0.351-1.73 0.975-2.354c0.624-0.624 1.471-0.975 2.354-0.975s1.73 0.351 2.354 0.975c0.624 0.624 0.975 1.471 0.975 2.354zM24.427 28.667c0-0.294-0.117-0.577-0.325-0.785s-0.491-0.325-0.785-0.325c-0.294 0-0.577 0.117-0.785 0.325s-0.325 0.491-0.325 0.785c0 0.294 0.117 0.577 0.325 0.785s0.49 0.325 0.785 0.325c0.294 0 0.577-0.117 0.785-0.325s0.325-0.49 0.325-0.785z"></path>
</svg>
